<svg width="1200" height="300" viewBox="0 0 1200 300" xmlns="http://www.w3.org/2000/svg">
  <rect width="1200" height="300" fill="#1C1815"/>

  <g stroke="#3A332C" stroke-width="1">
    <line x1="0" y1="40" x2="1200" y2="40"/>
    <line x1="0" y1="260" x2="1200" y2="260"/>
    <line x1="60" y1="0" x2="60" y2="300"/>
    <line x1="1140" y1="0" x2="1140" y2="300"/>
  </g>

  <g stroke="#3A332C" stroke-width="0.5" stroke-dasharray="2,6">
    <line x1="60" y1="80" x2="1140" y2="80"/>
    <line x1="60" y1="220" x2="1140" y2="220"/>
  </g>

  <g fill="none" stroke="#E8A33D" stroke-width="1.5">
    <circle cx="1080" cy="70" r="26"/>
    <line x1="1080" y1="44" x2="1080" y2="96"/>
    <line x1="1054" y1="70" x2="1106" y2="70"/>
    <path d="M 1080 44 A 26 26 0 0 1 1106 70" stroke-width="3"/>
  </g>

  <text x="100" y="140" font-family="Georgia, 'Times New Roman', serif" font-size="52" font-weight="600" fill="#F2E9DC">Shubham Kumar</text>

  <text x="102" y="178" font-family="'Courier New', monospace" font-size="17" letter-spacing="1.5" fill="#E8A33D">MECHANICAL ENGINEER  &#8594;  DATA &amp; BUSINESS ANALYST</text>

  <g font-family="'Courier New', monospace" font-size="12" fill="#9C9188" letter-spacing="0.5">
    <text x="102" y="205">DTU &#039;27 &#8226; PYTHON &#8226; SQL &#8226; STRUCTURED PROBLEM-SOLVING</text>
  </g>

  <g stroke="#5A5148" stroke-width="1">
    <line x1="100" y1="215" x2="100" y2="225"/>
    <line x1="700" y1="215" x2="700" y2="225"/>
    <line x1="100" y1="220" x2="700" y2="220"/>
  </g>
  <text x="400" y="212" font-family="'Courier New', monospace" font-size="10" fill="#5A5148" text-anchor="middle">SCALE 1:1</text>
</svg>
